<svg id="abstract_shape34" xmlns="http://www.w3.org/2000/svg" viewBox="0 0 256 256"><defs><style>.cls-1{fill:#0d0902;}</style></defs><title>abstract_shape34</title><path class="cls-1" d="M206.29,135.21l11.16-8.91-12.58-6.75,9.07-11-13.72-4,6.58-12.68-14.25-1L196.35,77l-4.79.65.27-.53-9.48-.7.7-11.74-1.7.61.6-2.18-13,1.78-.24-1.59.71-11.85-12.71,4.58-2-13.36-11.48,7.12-4.75-12.65-9.75,9.35L121.4,35.14l-7.6,11.17-9.48-9.62-5.11,12.5L87.94,41.75l-2.4,13.3L73,50.11l.42,13.5-13.32-2.2,3.21,13.11-13.49.61,5.88,12.16L42.6,90.7l8.27,10.67-12.08,6,10.32,8.73-10.56,8.42L50.45,131l-8.58,10.43,3.73,1.08,8.32,4.47-5.29,10.21,1.65.12-2.06,2.51,12.43,3.61L59,169.49l-3.61,6.95,14.25,1.05-3.8,13.76L80,189.32l-.85,14.26,13.44-4.84,2.13,14.13,12.14-7.53,5,13.37,10.31-9.88,7.7,12,8-11.81,10,10.17L153.3,206l11.92,7.87,2.54-14.06,13.3,5.21-.45-14.27,14.09,2.33-3.4-13.87,14.27-.65-6.22-12.85,13.82-3.6-8.74-11.29,12.77-6.39ZM62,158.38,60.89,158l1.21.09ZM195.85,96.24l2.72.2-4.67,9L190,103.35Zm-7.22-12.92.63-.08-1.78,6.44-1.86-.54ZM71.7,172.43l-8.11-.6.77-1.48,7.53-1Zm1.2,12.62.89-3.21,10-3.6.79,5.21Zm131.35-26-12.32,3.21,5.54,11.46-12.72.58,3,12.36-12.56-2.08.39,12.72-11.84-4.65-2.26,12.53-10.63-7L146.07,210l-8.93-9.07L130,211.44l-6.86-10.73-9.19,8.81-4.47-11.92-10.82,6.71-1.9-12.59-12,4.3.48-8.17.57,3.74,11.48-7.11L102,197.12l9.75-9.35,7.28,11.39L126.66,188l9.48,9.62,5.11-12.51,11.27,7.44,2.4-13.29,12.57,4.93-.42-13.5,13.32,2.21-3.21-13.12,13.49-.61L184.79,147l13.08-3.4-8.28-10.68,12.08-6-10.32-8.72,9.93-7.92,3.65,1.06-8.08,9.83,11.21,6-9.95,7.94,9.72,8.22L196.45,149Z"/></svg>