<svg xmlns="http://www.w3.org/2000/svg" viewBox="0 0 256 256"><defs><style>.cls-1{fill:#0d0902;}</style></defs><title>abstract_shape13</title><g id="abstract_shape13"><path class="cls-1" d="M235.78,181.42c-1.89-6-7.4-11.78-15.74-16.91,4.82-5.36,5.87-11.45,2.89-17.82-3.21-6.89-10.78-13.44-21.66-19.1,4.73-5.47,5.63-11.73,2.57-18.28-2.81-6-8.7-11.78-17.06-16.91C191.58,87,193,81,191,74.58c-3.17-9.92-14-19.16-31-26-16.75-6.73-37.9-10.43-60.59-10.43s-44.09,3.7-59.44,10.43c-15.66,6.86-22.87,16.1-19.7,26,1.9,6,7.4,11.78,15.75,16.91-4.83,5.36-5.88,11.45-2.9,17.82,3.22,6.88,10.78,13.44,21.66,19.1-4.73,5.47-5.63,11.73-2.57,18.28,2.81,6,8.7,11.77,17.06,16.91C64.42,169,63,175,65,181.42c3.17,9.92,14,19.16,31,26,16.75,6.72,37.9,10.43,60.59,10.43s44.09-3.7,59.44-10.43C231.74,200.58,239,191.33,235.78,181.42Zm-15.12-34.73c2.79,5.95,1.54,11.55-3,16.43a108.48,108.48,0,0,0-17.31-7.71c-15.46-5.47-33.62-8.93-52-10,17.37-1.11,32.27-4.58,42.66-10.05a37.3,37.3,0,0,0,9-6.38C210.22,134.11,217.63,140.19,220.66,146.69Zm-99.59-34.17c28.69,0,56.88,6,76.29,15.12-10.11,9.51-33,15.84-62.43,15.84-28.69,0-56.89-6-76.29-15.12C68.76,118.85,91.64,112.52,121.07,112.52Zm-1.72-3.77c-30.8,0-61.12-6.94-79.69-17.21,10.6-9.83,35-16.41,65-16.4,30.84,0,59.88,6.94,78.46,17.21C172.54,102.18,149.39,108.75,119.35,108.75Zm17.3,38.5c30.79,0,61.12,6.93,79.69,17.21-10.6,9.83-35,16.4-65,16.4-30.85,0-59.88-6.94-78.46-17.21C83.46,153.82,106.61,147.25,136.65,147.25Zm64.92-37.94c2.89,6.18,1.69,12-2.88,17A130.07,130.07,0,0,0,185,120.68a197.09,197.09,0,0,0-52.23-10c17.38-1.11,32.26-4.58,42.88-10a41.11,41.11,0,0,0,9.85-6.84C193.29,98.41,199,103.7,201.57,109.31ZM22.48,74.58c-6.2-18.84,31.05-34.17,76.91-34.17s83.13,15.32,89.33,34.17c1.88,6,.26,11.55-4.3,16.43a110.91,110.91,0,0,0-17-7.71c-18.5-6.72-40.86-10.43-63.53-10.43S61,76.58,47.41,83.3a40.69,40.69,0,0,0-10.15,6.85C29.55,85.48,24.25,80.19,22.48,74.58Zm12.86,34.73c-2.79-6-1.54-11.55,3-16.43a108.84,108.84,0,0,0,17.3,7.71c15.46,5.46,33.63,8.93,52,10-17.38,1.11-32.28,4.58-42.67,10.05a37.3,37.3,0,0,0-9,6.38C45.78,121.89,38.37,115.81,35.34,109.31Zm19.09,37.38c-2.89-6.18-1.69-12,2.88-17A130.07,130.07,0,0,0,71,135.32a197.81,197.81,0,0,0,52.23,10c-17.39,1.11-32.26,4.58-42.88,10a40.91,40.91,0,0,0-9.85,6.84C62.72,157.58,57.05,152.3,54.43,146.69Zm102.18,68.9c-45.81,0-83.13-15.32-89.33-34.17-1.88-5.95-.26-11.55,4.3-16.43a110.91,110.91,0,0,0,17,7.71c18.5,6.72,40.86,10.43,63.53,10.43s42.91-3.71,56.49-10.43a40.58,40.58,0,0,0,10.16-6.85c7.71,4.68,13,10,14.78,15.57C239.72,200.26,202.47,215.59,156.61,215.59Z"/></g></svg>