<svg xmlns="http://www.w3.org/2000/svg" viewBox="0 0 256 256"><defs><style>.cls-1{fill:#0d0902;}</style></defs><title>abstract_shape03</title><g id="abstract_shape03"><path class="cls-1" d="M128,40.4C68.64,40.4,20.35,79.7,20.35,128S68.64,215.6,128,215.6,235.65,176.3,235.65,128,187.36,40.4,128,40.4Zm0,174.14c-58.63,0-106.32-38.82-106.32-86.54S69.37,41.46,128,41.46,234.32,80.28,234.32,128,186.63,214.54,128,214.54Z"/><path class="cls-1" d="M128.5,42.64C71.66,42.64,25.42,78.25,25.42,122s46.24,79.38,103.08,79.38S231.59,165.8,231.59,122,185.34,42.64,128.5,42.64Zm0,157.79c-56.16,0-101.85-35.17-101.85-78.4S72.34,43.62,128.5,43.62,230.35,78.8,230.35,122,184.66,200.43,128.5,200.43Z"/><path class="cls-1" d="M129,44.88c-54.32,0-98.51,31.93-98.51,71.17S74.68,187.23,129,187.23s98.52-31.93,98.52-71.18S183.33,44.88,129,44.88Zm0,141.44c-53.69,0-97.37-31.52-97.37-70.27S75.31,45.79,129,45.79s97.38,31.52,97.38,70.26S182.7,186.32,129,186.32Z"/><path class="cls-1" d="M129,47.05c-52.08,0-94.45,28.67-94.45,63.91s42.37,63.9,94.45,63.9,94.46-28.67,94.46-63.9S181.09,47.05,129,47.05Zm0,127C77.51,174,35.61,145.73,35.61,111S77.51,47.89,129,47.89,222.4,76.18,222.4,111,180.5,174,129,174Z"/><path class="cls-1" d="M129.46,48.85c-49.77,0-90.27,25.71-90.27,57.3s40.5,57.3,90.27,57.3,90.28-25.71,90.28-57.3S179.24,48.85,129.46,48.85Zm0,113.82c-49.23,0-89.29-25.36-89.29-56.52s40.06-56.52,89.29-56.52,89.3,25.36,89.3,56.52S178.7,162.67,129.46,162.67Z"/><path class="cls-1" d="M129.51,50.37c-47.9,0-86.86,23.64-86.86,52.69s39,52.69,86.86,52.69,86.85-23.63,86.85-52.69S177.4,50.37,129.51,50.37Zm0,104.65c-47.39,0-85.93-23.31-85.93-52s38.54-51.95,85.93-51.95,85.93,23.31,85.93,52S176.89,155,129.51,155Z"/><path class="cls-1" d="M129.91,51.72c-45.86,0-83.17,21.42-83.17,47.76s37.31,47.75,83.17,47.75,83.17-21.42,83.17-47.75S175.77,51.72,129.91,51.72Zm0,94.82c-45.38,0-82.31-21.11-82.31-47.06s36.93-47.07,82.31-47.07,82.31,21.11,82.31,47.07S175.3,146.54,129.91,146.54Z"/><path class="cls-1" d="M130.32,53.07c-43.83,0-79.49,19.21-79.49,42.82s35.66,42.81,79.49,42.81,79.49-19.21,79.49-42.81S174.15,53.07,130.32,53.07Zm0,85c-43.39,0-78.7-18.93-78.7-42.18s35.31-42.18,78.7-42.18S209,72.63,209,95.89,173.71,138.07,130.32,138.07Z"/><path class="cls-1" d="M130.32,54.38c-42,0-76.22,17.24-76.22,38.44s34.19,38.45,76.22,38.45S206.53,114,206.53,92.82,172.34,54.38,130.32,54.38Zm0,76.3c-41.62,0-75.48-17-75.48-37.86S88.7,55,130.32,55s75.47,17,75.47,37.85S171.94,130.68,130.32,130.68Z"/><path class="cls-1" d="M130.69,55.46c-40.17,0-72.84,15.47-72.84,34.47s32.67,34.47,72.84,34.47,72.84-15.46,72.84-34.47S170.85,55.46,130.69,55.46Zm0,68.4c-39.79,0-72.16-15.22-72.16-33.93S90.9,56,130.69,56s72.16,15.22,72.16,33.92S170.48,123.86,130.69,123.86Z"/></g></svg>