<svg viewBox="0 0 256 256" xmlns="http://www.w3.org/2000/svg"><g fill="#ec684d"><path d="m219.58 129.3 13.6-10.85-15.33-8.22 11.05-13.44-16.7-4.85 8-15.44-17.34-1.28 4.62-16.77-17.23 2.36 1-17.36-16.37 5.89-2.6-17.2-14.74 9.16-6.12-16.3-12.55 12-9.37-14.6-9.78 14.38-12.21-12.39-6.57 16.11-14.52-9.58-3.09 17.08-16.19-6.32.54 17.39-17.15-2.85 4.14 16.89-17.37.79 7.56 15.66-16.86 4.38 10.66 13.75-15.56 7.78 13.31 11.23-13.59 10.85 15.33 8.22-11 13.44 16.7 4.85-8 15.44 17.35 1.28-4.62 16.77 17.23-2.36-1 17.36 16.37-5.89 2.6 17.2 14.78-9.16 6.02 16.3 12.55-12 9.37 14.65 9.78-14.38 12.21 12.39 6.57-16.11 14.52 9.58 3.08-17.13 16.2 6.35-.54-17.39 17.15 2.85-4.14-16.89 17.37-.79-7.56-15.66 16.86-4.41-10.66-13.75 15.56-7.78zm-90.89 77.79a78.74 78.74 0 1 1 78.74-78.74 78.74 78.74 0 0 1 -78.74 78.74z"/><circle cx="128.69" cy="128.2" r="74.37"/></g></svg>