<svg xmlns="http://www.w3.org/2000/svg" viewBox="0 0 256 256"><defs><style>.cls-1{fill:#0d0902;}</style></defs><title>galaxy05</title><g id="galaxy05"><path class="cls-1" d="M185.43,90.63c-24.82-17.38-51.07-31.4-73.91-39.49l-2.25-.77a6.91,6.91,0,0,0,.25-1.83,6.77,6.77,0,0,0-13.25-2c-14.11-3.41-24.8-3.32-31,.39-16.13-1.92-27.91.62-32.53,8.26-5.64,9.35,0,24.66,15.83,43.11,15.69,18.28,39.58,37.55,67.26,54.27a335.83,335.83,0,0,0,49.42,24.76c0,.08,0,.16,0,.24a2.75,2.75,0,0,0,4.95,1.64c3.6,1.34,7.15,2.57,10.62,3.67-.49,1.16-1,2.33-1.63,3.54.61-1.21,1.25-2.35,1.9-3.45,4.85,1.53,9.57,2.83,14.11,3.87a103.37,103.37,0,0,0,22.61,2.94c10.44,0,17.93-2.56,21.89-7.57,4.48-.41,8.11-1.59,10.68-3.64C266,166.11,236.86,126.65,185.43,90.63Zm-14.72,87.43a3.57,3.57,0,0,0,0-.47,2.75,2.75,0,0,0-5.08-1.45,335,335,0,0,1-49.16-24.65c-27.57-16.64-51.35-35.82-67-54-15.45-18-21-32.78-15.69-41.62,3.46-5.72,11.15-8.44,21.82-8.44a77.51,77.51,0,0,1,8.21.48l-.07.05c-7.66,6.13-5,18.7,7.39,35.39C83.5,99.87,104,118.53,128.77,135.92a350.87,350.87,0,0,0,55.11,31.78c.44,3.84-.42,8.62-2.57,14C177.85,180.62,174.3,179.39,170.71,178.06Zm24.77,7.55c-4.42-1-9-2.27-13.72-3.75a39.89,39.89,0,0,1,9.53-10.94c5.75,2.4,11.31,4.47,16.55,6.14,11.81,3.78,22.11,5.63,30,5.29C231.34,189.24,216.5,190.43,195.48,185.61Zm44.14-5.48c-.24.39-.52.75-.79,1.12-11,.89-27.51-3.15-46.48-11.07,4.21-2.85,8.56-3.89,12.6-2.75-8.63-2.43-9.6-12.93-2.49-27-7.11,14.05-17,21.09-25.31,18.1a9.91,9.91,0,0,1,6.54,7.82,353.49,353.49,0,0,1-53.9-31.27c-24.7-17.29-45-35.85-57.24-52.26C60.48,66.62,57.79,54.52,65,48.77c.28-.22.58-.43.89-.63,12.79,1.64,28.39,6.14,45.36,13.13a2.31,2.31,0,0,0,2.31,2.14,2.27,2.27,0,0,0,1.48-.55A343.11,343.11,0,0,1,157,84.51c27.57,16.65,51.34,35.83,66.95,54C239.38,156.51,245,171.29,239.62,180.13Zm9.59-2.35a17.57,17.57,0,0,1-8.68,3.28c.06-.09.13-.18.18-.27,5.65-9.35,0-24.66-15.82-43.11-15.69-18.27-39.58-37.55-67.26-54.26a339.8,339.8,0,0,0-41.89-21.6,2.26,2.26,0,0,0,.14-.74,2.33,2.33,0,0,0-4.41-1c-16.31-6.66-31.4-11-44-12.8,6-2.87,15.78-2.69,28.58.44a6.11,6.11,0,0,0-.06.86,6.77,6.77,0,0,0,12.88,2.92l2.07.71c22.69,8,48.78,22,73.48,39.28C235.2,127,264.27,165.75,249.21,177.78Z"/></g></svg>