<svg xmlns="http://www.w3.org/2000/svg" viewBox="0 0 256 256"><defs><style>.cls-1{fill:#ec684d;}</style></defs><title>sparkle26</title><g id="sparkle26"><path class="cls-1" d="M243.83,146.15c-56.61,0-90.49-4.82-107.15-5,8.17-14.52,20.93-46.27,49.23-95.3-28.3,49-49.42,76-57.91,90.28-6.09-10.27-18.68-27.05-35.76-53.79,4.12-6,7.25-10.48,9.17-13.73,4.54,7.68,15.85,22.09,31,48.33-15.17-26.27-22-43.25-26.36-51,8.91-.1,27.05-2.68,57.36-2.68-30.31,0-48.45-2.59-57.36-2.69,4.37-7.76,11.19-24.73,26.36-51-15.15,26.24-26.46,40.66-31,48.33-4.55-7.67-15.85-22.09-31-48.33,15.17,26.28,22,43.25,26.36,51-3.92.05-9.61.57-17.33,1.14-3-5-6.14-10.27-9.35-15.85,3.18,5.52,6.15,10.8,9,15.88-9.82.72-22.86,1.52-39.65,1.52,17.8,0,31.39.89,41.4,1.64q4.61,8.43,8.57,16c-4.33,9-10.26,20.95-19,36C78.54,102.84,85.57,92.17,91,84.11c14.36,27.71,22.49,46.72,28.29,57-16.66.19-50.54,5-107.15,5,56.61,0,90.49,4.83,107.15,5-8.17,14.52-20.93,46.27-49.23,95.29,28.3-49,49.42-76,57.91-90.28,8.49,14.33,29.61,41.26,57.91,90.28-28.3-49-41.06-80.77-49.23-95.29C153.34,151,187.22,146.15,243.83,146.15Zm-153.62-67Q86,72.44,81.4,64.93c6.73.51,11.79.95,15.37,1C95.07,68.94,93,73.32,90.21,79.13Z"/></g></svg>