<svg viewBox="0 0 256 256" xmlns="http://www.w3.org/2000/svg"><g fill="#0d0902"><path d="m234.09 129.72c-9-4.33-17.6-10.53-26.65-14.87-12-5.3-23.44-8.06-34.94-11.06 12.48-15 33-18 52.69-18.16-24.09-6.25-48.19-4.63-71.68-.55a34.7 34.7 0 0 1 9.77-19.5c8.13-7.83 16.27-15.67 26.31-23-22.76 9.05-43.18 20.13-62.13 36.42-8.75-16.35-5.17-39.25 2.12-56-13.33 17.83-20.12 38.37-26.42 59.33-14.38-11.82-20.22-32.94-18.44-51.06-7.43 22.9-4.08 46.45.63 69.78-19.34-3-34.9-20-44.15-35.31 4.72 13.17 9.44 26.33 18.45 38.62 5.78 8.28 12.35 15.35 18.87 22.64a27.88 27.88 0 0 1 -11.33 3.23c-4.3.88-10.5 1.26-14.79 2.13-9.14-.55-18.68.42-27.86-5.9 17.58 13.29 38 19.32 58.71 25-11.51 13.37-33.91 19.18-52.44 17 22.77 7.42 47 4.88 70.42.55 0 .62.1 1.23.14 1.84-4.83 18.64-20.62 32.45-36.86 40.18 25.1-4.43 44.06-19 62.63-35.59 8.34 16.44 4.83 39.7-1.2 57.5 12.63-18.46 19.95-39.12 26.89-60.17 13.19 11.51 19.12 32.43 18.45 50 2.9-11.18 5.14-23.81 5.36-34.67-.37-14.07-1.34-20-4.64-30.8-.33-1.17-.68-2.35-1-3.54 18.83 2.43 36.14 18.62 43.36 36.41-6.67-23.66-20.76-43.08-37.33-61.83 16.97-8.34 39.29-4.81 57.06 1.38zm-72.42 6.4c-4.86 18.72-24.3 29.87-43.44 24.9s-30.7-24.16-25.85-42.88 24.31-29.87 43.44-24.9 30.71 24.16 25.85 42.88z"/><path d="m24.54 126.42c-.88-.67-1.77-1.31-2.63-2a31.15 31.15 0 0 0 2.63 2z"/></g></svg>