<svg xmlns="http://www.w3.org/2000/svg" viewBox="0 0 256 256"><defs><style>.cls-1{fill:#0d0902;}</style></defs><title>target_aim03</title><g id="target_aim03"><path class="cls-1" d="M181.81,108.4c-.38-.88-.85-1.71-1.28-2.55.5.9.92,1.85,1.36,2.78C181.86,108.55,181.84,108.47,181.81,108.4Z"/><path class="cls-1" d="M89.9,87.6l-.05.08c.4-.52.79-1.05,1.19-1.55C90.67,86.63,90.26,87.09,89.9,87.6Z"/><path class="cls-1" d="M234.84,125l-48.5-1.23a49.53,49.53,0,0,0-4.45-15.16,74.13,74.13,0,0,1,3.87,15.15l-12.38-.32a45.85,45.85,0,0,0-23.27-31.15A41.12,41.12,0,0,0,129.8,89l-.25-9.76.69-.1c16.48-1.54,31.89,5.13,42.66,16.28a49.08,49.08,0,0,1,7.63,10.4c-9.55-18.5-30.44-28.77-51-27.31l-.33-12.86a70.88,70.88,0,0,1,29.53,3.94,61.25,61.25,0,0,0-29.53-4L128,19l-1.2,46.94C113,67.68,100.18,74.09,91,86.13A57,57,0,0,1,126.8,66l-.33,12.84a51.68,51.68,0,0,0-9,2c-17,6.31-28.28,24.51-25.15,42.44l-9.56.24a50.6,50.6,0,0,1,7.14-35.78A52.63,52.63,0,0,0,86.15,93a47.41,47.41,0,0,0-5.72,30.5l-11.73.3a48.42,48.42,0,0,1,2.7-23.75,49.05,49.05,0,0,0-2.94,23.75L21.16,125l47.65,1.21a54.77,54.77,0,0,0,13.25,27.4,59.28,59.28,0,0,1-13-27.4l11.91.3c3.25,15.32,14,28.72,31.43,32.73a36,36,0,0,0,13.73-.08l.25,10.45a45.48,45.48,0,0,1-8.69.69,47.13,47.13,0,0,1-11.73-1.7,46.47,46.47,0,0,0,20.43,1.51l.3,12.25a60.86,60.86,0,0,1-26.53-2.32c9.07,3.82,18.2,4,26.44,3.21l.11,0L128,237l1.31-54.37c3.41-.9,6.5-2.13,10.14-2.79l11.06-5.29a55.94,55.94,0,0,0,18.21-20.66,99,99,0,0,1-7.06,9.89c-8.33,10.05-20,16.05-32.34,18.22l.3-12.52c.91-.21,1.82-.45,2.71-.73,18.37-5.16,30.54-22.31,30-41.51,0-.13,0-.25-.06-.38l10.2-.26a93,93,0,0,1,.59,13.62c0,.47,0,.94-.07,1.4a56.71,56.71,0,0,0,1.1-7.78,39.27,39.27,0,0,0-.2-7.28l12.18-.31a48,48,0,0,1-3.1,22.37,48.65,48.65,0,0,0,3.62-22.38Zm-149.4,8.19a52.66,52.66,0,0,1-2.07-6.62l9.73.25a36.48,36.48,0,0,0,4.17,9.32c6.22,10.16,16.25,11.24,25.29,16.88C105.09,159.14,91.6,147,85.44,133.21Zm40.75-43.58a32.48,32.48,0,0,0-4.37,1.27c-12.89,5.26-19.49,17-22.47,30.67-6.25-8.33-3.4-14.67-.58-19.19,5.2-11.57,14.91-20,27.67-22.6Zm20,71.14a47.27,47.27,0,0,1-16.55,8.17l.26-10.75c13.39-4.33,23.42-16.5,25.89-31.17h.42C160.91,139.62,155.28,152,146.18,160.77Zm15.49-37.6c-3.21-15-16.74-24.4-31.68-26.39l0-1.35c13.06-4.2,27.06,2.29,35.41,12.68a35.55,35.55,0,0,1,6.56,15.32Z"/><path class="cls-1" d="M173,141.62a52,52,0,0,1-4.24,12.27A28.39,28.39,0,0,0,173,141.62Z"/><path class="cls-1" d="M82.06,153.63c1,1.14,1.94,2.26,3,3.33a55.33,55.33,0,0,0,5.88,4.53A52.48,52.48,0,0,1,82.06,153.63Z"/><path class="cls-1" d="M106,168.62a55.13,55.13,0,0,1-15-7.13A48.6,48.6,0,0,0,106,168.62Z"/></g></svg>